<?xml version="1.0" encoding="UTF-8" standalone="no"?>
<!-- Created with Inkscape (http://www.inkscape.org/) -->

<svg
   width="512"
   height="512"
   viewBox="0 0 512 512"
   version="1.1"
   id="svg1"
   inkscape:version="1.3.2 (091e20e, 2023-11-25)"
   sodipodi:docname="iconenb.svg"
   xmlns:inkscape="http://www.inkscape.org/namespaces/inkscape"
   xmlns:sodipodi="http://sodipodi.sourceforge.net/DTD/sodipodi-0.dtd"
   xmlns="http://www.w3.org/2000/svg"
   xmlns:svg="http://www.w3.org/2000/svg">
     <style>
    path {
    fill: black;
    }
    @media (prefers-color-scheme: dark) {
    path {
    fill: white;
    }
    }
  </style>
  <sodipodi:namedview
     id="namedview1"
     pagecolor="#ffffff"
     bordercolor="#000000"
     borderopacity="0.25"
     inkscape:showpageshadow="2"
     inkscape:pageopacity="0.0"
     inkscape:pagecheckerboard="0"
     inkscape:deskcolor="#d1d1d1"
     inkscape:document-units="px"
     inkscape:zoom="1.3622196"
     inkscape:cx="236.37893"
     inkscape:cy="266.10982"
     inkscape:window-width="1680"
     inkscape:window-height="1022"
     inkscape:window-x="0"
     inkscape:window-y="28"
     inkscape:window-maximized="0"
     inkscape:current-layer="layer1" />
  <defs
     id="defs1" />
  <g
     inkscape:label="Calque 1"
     inkscape:groupmode="layer"
     id="layer1">
    <path
       d="m 123.78135,458.85217 c -54.488571,-11.9152 -65.907203,-80.38425 -18.30453,-109.75865 4.46988,-2.75827 12.25546,-5.82349 18.16211,-7.15063 3.07792,-0.6915 3.26228,-0.80399 3.53421,-2.15604 1.16925,-5.81324 5.52575,-15.64365 9.4653,-21.3582 9.0049,-13.06224 18.51141,-20.49337 33.69517,-26.33909 3.03176,-1.16723 3.5666,-1.56003 5.0646,-3.71955 2.67575,-3.85741 6.06812,-7.40244 9.90191,-10.34744 4.13656,-3.17766 4.19317,-3.30608 1.64316,-3.72717 -25.00397,-4.12887 -37.08489,-28.49262 -28.53233,-57.54136 6.81524,-23.14799 23.19605,-44.33273 41.63391,-53.84365 4.28119,-2.2084 4.21548,-2.07393 2.21508,-4.53268 -3.12947,-3.84647 -6.27206,-10.04588 -8.12693,-16.03197 -0.15521,-0.50046 -0.99804,-0.82348 -2.70087,-1.03431 -7.77761,-0.96302 -13.29433,-22.06961 -8.2612,-31.60691 1.68772,-3.19807 4.40731,-5.1278 8.10835,-5.75349 1.87849,-0.31773 1.87849,-0.31773 2.60694,-3.66466 8.87923,-40.798633 58.64703,-61.349369 96.48924,-39.843587 16.03675,9.113759 28.23401,25.432572 30.68925,41.059457 0.26013,1.65389 0.46448,1.91191 1.7286,2.18221 7.82186,1.67246 9.32027,4.65954 9.33337,18.60659 0.0124,14.90188 -1.28267,17.55557 -9.21429,18.85809 -2.91831,0.4795 -2.91831,0.4795 -3.45924,2.76943 -0.75977,3.21683 -4.45811,10.85995 -6.72875,13.90597 -2.14397,2.87616 -2.15125,2.85231 1.4374,4.74741 50.5462,26.69272 60.5346,101.60722 14.84475,111.3373 -4.48665,0.95552 -4.49793,0.78786 0.30535,4.54529 4.75089,3.71647 8.28247,7.2114 10.13583,10.03065 1.23641,1.88072 1.77286,2.24029 5.55477,3.72345 20.58171,8.07164 36.64819,25.62186 42.08928,45.97601 0.79112,2.95956 0.79112,2.95956 4.21647,3.74538 64.66936,14.83683 63.70236,103.96362 -1.27021,117.08836 -7.73833,1.56315 -259.06558,1.40634 -266.25666,-0.16644 z M 387.27617,444.0075 c 45.5182,-9.68531 50.01314,-66.0093 6.77948,-84.95137 -3.67346,-1.60942 -10.09474,-3.03293 -14.91387,-3.30621 -4.93756,-0.27989 -4.93756,-0.27989 -5.18477,-2.34009 -0.13626,-1.13306 -0.46623,-3.66595 -0.73377,-5.62855 -1.86551,-13.68017 -11.24857,-27.59196 -23.39826,-34.6914 -3.46224,-2.02305 -3.47738,-2.01154 -4.06117,3.07618 -0.76248,6.64523 -1.71603,10.39574 -9.7996,38.54298 -4.97005,17.30562 -6.4455,22.64345 -7.20909,26.08053 -3.67867,16.55856 -20.34789,24.18259 -35.71337,16.33422 -7.94559,-4.0584 -10.82128,-8.48347 -15.62965,-24.05066 -0.79895,-2.58666 -1.81557,-5.81511 -2.25919,-7.17443 -2.17198,-6.65548 -2.13875,-10.88269 0.11808,-15.03089 0.52613,-0.96669 1.82911,-4.98256 2.89581,-8.9241 1.06677,-3.94156 2.24269,-8.24083 2.61326,-9.55388 0.7683,-2.72265 1.23565,-2.34335 -6.26403,-5.08387 -12.81992,-4.68466 -25.45587,-4.20435 -38.08292,1.44767 -3.23465,1.44788 -3.21992,1.39905 -1.88297,6.24754 0.50945,1.84761 1.40046,5.07251 1.97996,7.16645 1.20314,4.34739 2.62945,8.46807 3.72081,10.74979 1.89001,3.95138 1.88444,3.98031 -5.33436,27.4423 -8.01835,26.06068 -41.90062,26.88539 -48.93927,1.19114 -0.7037,-2.5688 -1.7621,-6.38372 -2.35203,-8.47772 -0.58993,-2.09393 -1.69915,-6.12511 -2.46492,-8.95808 -0.76578,-2.83299 -1.66863,-5.95718 -2.00632,-6.94254 -0.3377,-0.98538 -1.35542,-4.51266 -2.2616,-7.83836 -0.90618,-3.3257 -2.13125,-7.65918 -2.72235,-9.62999 -3.75473,-12.51825 -5.55547,-20.10225 -5.92907,-24.97073 -0.16542,-2.15558 -0.36976,-3.91916 -0.45408,-3.91916 -9.14692,0 -25.36554,24.96267 -27.05582,41.64255 -0.30569,3.01664 -0.30569,3.01664 -5.09018,3.30673 -21.27946,1.29029 -40.011093,16.74593 -43.747453,36.09638 -5.006324,25.92761 14.543193,51.0276 41.152963,52.8371 10.96875,0.74591 250.53727,0.0961 254.22955,-0.68953 z M 216.46348,388.67262 c 6.81777,-3.09323 10.29531,-9.07873 12.64854,-21.77033 1.18354,-6.38314 1.41543,-6.25384 -5.29677,-2.95427 -9.38955,4.61572 -18.15059,5.80203 -25.91186,3.50872 -4.47158,-1.32125 -4.31651,-1.43054 -4.13665,2.91586 0.62613,15.13144 11.08825,23.56685 22.69674,18.30002 z m 93.99506,0.44925 c 6.75253,-2.25991 10.36543,-8.97899 10.37553,-19.29606 0.005,-3.98269 0.0781,-3.93486 -3.88049,-2.51089 -7.70425,2.77154 -21.03263,0.50861 -29.33542,-4.98097 -3.06846,-2.02877 -3.19165,-1.91821 -2.48543,2.2311 1.10581,6.49701 3.57251,13.91625 5.73692,17.25493 4.60326,7.10084 11.97694,9.84937 19.58889,7.30189 z m -94.47661,-28.87732 c 5.02304,-1.18318 12.22563,-5.28092 12.88142,-7.32854 0.23686,-0.73967 -0.45361,-4.38346 -1.78221,-9.40466 -0.84502,-3.19354 -3.00363,-12.22525 -4.54967,-19.03599 -0.67106,-2.95618 -1.89025,-8.09591 -2.70932,-11.42161 -2.22591,-9.03799 -2.29526,-9.57697 -1.15451,-8.97194 0.5115,0.27118 0.93001,0.69964 0.93001,0.95186 0,0.25196 0.1697,0.35438 0.3771,0.22753 1.17348,-0.71874 7.44401,7.90468 7.9277,10.90242 0.36142,2.23989 0.16611,2.24885 5.05664,-0.23162 2.22155,-1.12666 5.25946,-2.35841 6.75091,-2.73731 4.76458,-1.21023 4.46563,-0.60782 4.15242,-8.36632 -0.28655,-7.09217 -1.59536,-16.84469 -2.7738,-20.66474 -0.37992,-1.23177 -0.69307,-2.2804 -0.69577,-2.33037 -0.003,-0.0523 0.94233,0.85704 2.10005,2.0156 5.44145,5.44519 8.29022,12.86189 8.29022,21.58295 0,4.9033 -0.25307,4.73518 6.88677,4.57533 6.03109,-0.13503 6.03109,-0.13503 6.59228,-5.96863 0.83705,-8.70111 3.81865,-16.32945 7.73003,-19.77718 1.37193,-1.2093 1.40693,-1.21587 1.18843,-0.22404 -3.1765,14.42173 -2.57291,27.58604 1.33059,29.02175 1.74004,0.63996 4.93927,2.0091 7.10937,3.04248 4.93722,2.35104 4.55353,2.4186 5.95417,-1.04869 2.18033,-5.39746 10.35457,-14.88854 9.14795,-10.62158 -0.12211,0.4312 -0.65348,2.79941 -1.18127,5.26288 -3.25899,15.21163 -7.98235,35.15193 -9.33115,39.39235 -3.54702,11.15137 34.41333,17.52455 38.32811,6.43492 1.7701,-5.01451 3.31431,-10.28877 8.70831,-29.74398 7.0742,-25.51526 -4.81971,-43.58018 -33.19952,-50.42472 -9.36633,-2.25897 -80.54005,-1.64336 -89.48881,0.77402 -7.1315,1.92646 -10.36046,3.73712 -18.83593,10.56258 -11.28241,9.08588 -15.50173,21.5098 -11.6156,34.20246 0.52795,1.72447 1.8132,6.15874 2.85607,9.85396 4.55408,16.13661 7.59822,25.78661 8.41751,26.68382 3.03304,3.32133 16.10222,4.81659 24.6015,2.81465 z m 76.79552,-96.79704 c 3.44614,-1.74846 5.18171,-17.5796 1.92718,-17.5796 -9.93402,0 -10.97102,-14.48085 -1.22284,-17.07647 4.21355,-1.12196 3.7176,-17.10725 -0.6199,-19.97882 -2.30563,-1.52645 -68.33395,-1.61811 -70.81531,-0.0984 -4.25685,2.60726 -5.14262,18.78204 -1.09305,19.9599 9.33827,2.71619 9.27696,14.43285 -0.0879,16.81147 -4.01917,1.0208 -3.06313,15.90405 1.15551,17.9884 2.29329,1.133 68.51979,1.10822 70.75637,-0.0291 z m 23.74078,-1.22921 c 11.41335,-11.31087 6.77983,-31.08467 -8.08446,-34.50104 -3.8573,-0.8865 -3.77199,-1.02942 -2.34978,3.93719 1.17197,4.09274 1.19458,4.42764 1.19458,17.6719 0,13.50007 0,13.50007 2.82477,14.16334 4.0822,0.95856 4.18542,0.93807 6.41489,-1.27139 z m -111.83538,0.95366 c 2.4858,-0.57436 2.4858,-0.57436 2.73513,-15.09786 0.23405,-13.63403 0.31327,-14.7103 1.29292,-17.57203 1.2716,-3.71444 1.346,-3.63472 -2.62642,-2.8139 -14.51729,2.99977 -19.19385,20.04766 -9.15677,33.38003 2.22501,2.95547 3.07259,3.18545 7.75514,2.10376 z m 129.53373,-3.20599 c 24.14706,-13.92227 11.14993,-64.07244 -21.63692,-83.48708 -4.53298,-2.68424 -3.40081,-2.85683 -9.90594,1.50998 -24.38811,16.37135 -72.8419,15.55817 -93.42366,-1.56782 -3.58367,-2.98195 -3.1117,-3.01926 -9.15485,0.72357 -30.02115,18.59355 -43.29134,68.8289 -21.56786,81.64673 5.97375,3.52479 9.83187,4.10706 7.70362,1.16263 -6.76493,-9.35921 -6.00561,-23.06483 1.73198,-31.26211 3.73694,-3.95889 1.89498,-4.39848 -4.66973,-1.11439 -3.29952,1.65063 -3.65955,1.39249 -1.23968,-0.88877 2.59792,-2.4492 6.36025,-4.32294 10.83194,-5.39474 4.655,-1.11572 4.34378,-0.74811 4.98145,-5.88367 0.80235,-6.46168 4.47209,-17.29009 5.50799,-16.25251 0.63978,0.64081 1.30793,7.85051 1.30793,14.11319 0,6.1705 0,6.1705 1.75755,6.1705 2.06946,0 2.34321,-0.73188 2.26353,-6.05139 -0.10674,-7.12567 3.05312,-12.24846 8.6339,-13.99732 3.33074,-1.04368 76.95635,-1.2086 80.44953,-0.1804 5.39458,1.58825 8.13538,6.48073 8.13538,14.52212 0,5.54556 0.071,5.70676 2.50686,5.70676 1.71238,0 2.00926,-1.26738 2.06558,-8.81676 0.091,-12.2033 0.3805,-13.52491 2.14221,-9.78639 2.62736,5.57459 4.32963,11.91595 4.69335,17.48334 0.10036,1.53763 0.27715,1.81136 1.24697,1.93077 2.27468,0.27992 8.86573,2.45032 10.73414,3.53444 1.92982,1.1198 2.50545,1.67158 1.24285,1.19143 -0.78837,-0.29968 -0.92683,0.75587 -0.19436,1.48181 0.266,0.26361 -0.59835,0.10886 -1.92084,-0.34391 -4.50321,-1.54128 -5.43203,-1.07505 -2.81155,1.41146 8.60936,8.16894 9.54007,24.68071 1.9324,34.2819 -1.18843,1.49984 2.74821,0.40909 6.65617,-1.84384 z m -64.69583,-80.8186 c 10.60695,-1.40465 22.06052,-5.191 28.66608,-9.47658 2.25072,-1.46023 2.25072,-1.46023 2.39453,-5.22197 0.17557,-4.59395 0.31767,-4.46488 -2.49084,-2.26497 -2.52964,1.98162 -10.57189,5.95728 -12.73219,6.29404 -0.74574,0.1164 -1.10163,0.12687 -0.79089,0.0233 0.31062,-0.10301 0.56489,-0.38581 0.56489,-0.62884 0,-0.24265 -0.20317,-0.31714 -0.45216,-0.16468 -0.24837,0.15243 -0.45213,0.1839 -0.45213,0.0704 0,-0.61952 3.33975,-2.09097 3.77251,-1.66209 0.26188,0.25953 0.67751,0.47194 0.9239,0.47194 0.24662,0 0.0917,-0.25837 -0.3441,-0.57379 -0.71562,-0.51849 -0.54669,-0.74491 1.75371,-2.35149 1.40005,-0.97775 2.78531,-1.97931 3.07826,-2.22563 0.29302,-0.24616 1.65126,-1.29404 3.0185,-2.32818 13.92702,-10.53457 19.70361,-30.61041 15.56112,-54.0806 -2.6853,-15.214214 -15.83992,-31.501063 -30.02396,-37.172861 -21.92776,-8.768209 -40.15265,-7.085574 -58.07735,5.362154 -29.30274,20.349146 -30.88911,67.387297 -2.93777,87.108847 1.86435,1.31543 5.01681,3.79712 7.00545,5.51484 1.98864,1.71772 3.69073,3.18348 3.78243,3.25722 0.43899,0.35323 -3.67928,-0.95733 -6.52195,-2.07509 -3.06527,-1.20529 -6.77236,-3.18348 -9.30728,-4.9665 -1.9611,-1.37946 -2.19006,-1.12061 -2.19006,2.47563 0,3.93002 0.32519,4.31607 6.14854,7.2985 13.54358,6.93631 31.99012,9.6543 49.65011,7.31566 z m -18.05964,-14.21591 c -54.85772,-4.93885 -58.6826,-76.499488 -4.51966,-84.558846 37.86903,-5.634846 71.17431,25.500706 57.88017,54.109346 -0.36406,0.78379 -1.04227,2.43837 -1.5068,3.67689 -6.39306,17.04563 -29.18527,28.81354 -51.85371,26.77261 z m -28.06481,-38.7165 c 1.30594,-0.58966 2.52771,-2.86225 2.53136,-4.70859 0.009,-4.38038 6.19519,-15.3851 8.64904,-15.3851 0.23405,0 0.83858,-0.38117 1.34343,-0.84752 1.17793,-1.0875 6.99268,-3.92602 8.7686,-4.28041 5.15881,-1.029486 5.46099,-7.116519 0.43511,-8.7604 -4.86081,-1.589824 -17.80181,6.279492 -22.63185,13.76223 -7.15609,11.08636 -6.59599,23.60659 0.90456,20.21979 z"
       id="path1" />
  </g>
</svg>
